<?xml version="1.0" encoding="UTF-8"?>
<svg xmlns="http://www.w3.org/2000/svg" viewBox="0 0 400 300">
  <defs>
    <style>
      rect { fill: white; }
      path { fill: none; }
      .axis, rect, path {
        stroke: black;
        stroke-width: 4px;
      }
    </style>
  </defs>

  <path class="axis" d="M 10,10 10,280 380,280" />

  <g transform="translate( 100 0 )">
    <path d="M 10,40 10,220" />
    <path d="M 0,40 20,40" />
    <path d="M 0,220 20,220" />
    <rect x="0" y="90" width="20" height="100" />
    <path d="M 0,130 20,130" />
  </g>

  <g transform="translate( 200 0 )">
    <path d="M 10,90 10,250" />
    <path d="M 0,90  20,90" />
    <path d="M 0,250 20,250" />
    <rect x="0" y="140" width="20" height="80" />
    <path d="M 0,170 20,170" />
  </g>

  <g transform="translate( 300 0 )">
    <path d="M 10,50 10,180" />
    <path d="M 0,50 20,50" />
    <path d="M 0,180 20,180" />
    <rect x="0" y="70" width="20" height="70" />
    <path d="M 0,120 20,120" />
  </g>

</svg>