<?xml version="1.0" encoding="UTF-8"?>
<svg xmlns="http://www.w3.org/2000/svg" viewBox="0 0 400 300">
  <defs>
    <style>
      path { stroke: #fff; }
    </style>
  </defs>
  <g transform="translate(200,156)">
    <path d="M6.749459489348308e-15,-110.22703842524301A110.22703842524301,110.22703842524301 0 1,1 -104.83214316624364,34.06202811302044L-74.12751931916988,24.085491059683577A77.94228634059948,77.94228634059948 0 1,0 4.772588574262081e-15,-77.94228634059948Z" style="fill: rgb(255, 127, 14);"></path>
    <path d="M8.266365894244634e-15,-135A135,135 0 1,1 -5.168567743551382e-14,135L-4.220117890903035e-14,110.22703842524301A110.22703842524301,110.22703842524301 0 1,0 6.749459489348308e-15,-110.22703842524301Z" style="fill: rgb(44, 160, 44);"></path>
    <path d="M-5.168567743551382e-14,135A135,135 0 0,1 -128.3926296998457,41.71729424061791L-104.83214316624364,34.06202811302044A110.22703842524301,110.22703842524301 0 0,0 -4.220117890903035e-14,110.22703842524301Z" style="fill: rgb(214, 39, 40);"></path>
    <path d="M-104.83214316624364,34.06202811302044A110.22703842524301,110.22703842524301 0 0,1 -2.0248378468044924e-14,-110.22703842524301L-1.4317765722786242e-14,-77.94228634059948A77.94228634059948,77.94228634059948 0 0,0 -74.12751931916988,24.085491059683577Z" style="fill: rgb(148, 103, 189);"></path>
    <path d="M-128.3926296998457,41.71729424061791A135,135 0 0,1 -79.35100905948389,-109.21729424061789L-64.7898275902336,-89.17554732564193A110.22703842524301,110.22703842524301 0 0,0 -104.83214316624364,34.06202811302044Z" style="fill: rgb(140, 86, 75);"></path>
    <path d="M-79.35100905948389,-109.21729424061789A135,135 0 0,1 -2.4799097682733902e-14,-135L-2.0248378468044924e-14,-110.22703842524301A110.22703842524301,110.22703842524301 0 0,0 -64.7898275902336,-89.17554732564193Z" style="fill: rgb(227, 119, 194);"></path>
  </g>
</svg>