<?xml version="1.0" encoding="UTF-8"?>
<svg xmlns="http://www.w3.org/2000/svg" viewBox="0 0 400 300">
  <defs>
    <style>
      rect { fill: white; }
      path { fill: none; }
      .axis, path {
        stroke: black;
        stroke-width: 1px;
      }
      .axis {
        stroke-width: 4px;
      }
    </style>
  </defs>

  <path class="axis" d="M 10,10 10,280 380,280" />

  <g class="boxgroup" transform="translate( 80 1080)">
    <line x1="0" x2="0" y1="500" y2="435"/>
    <path d="M25.098039215686274,500C12.549019607843137,498.3333333333333,0,496.6666666666667,0,495C0,493.3333333333333,12.549019607843137,491.6666666666667,12.549019607843137,490C12.549019607843137,488.3333333333333,12.549019607843137,486.6666666666667,12.549019607843137,485C12.549019607843137,483.3333333333333,25.098039215686274,481.6666666666667,25.098039215686274,480C25.098039215686274,478.3333333333333,0,476.6666666666667,0,475C0,473.3333333333333,12.549019607843137,471.6666666666667,12.549019607843137,470C12.549019607843137,468.3333333333333,12.549019607843137,466.6666666666667,12.549019607843137,465C12.549019607843137,463.3333333333333,0,461.6666666666667,0,460C0,458.3333333333333,0,456.6666666666667,0,455C0,453.3333333333333,0,451.6666666666667,0,450C0,448.3333333333333,12.549019607843137,446.6666666666667,12.549019607843137,445C12.549019607843137,443.3333333333333,0,441.6666666666667,0,440C0,438.3333333333333,6.2745098039215685,436.6666666666667,12.549019607843137,435L-12.549019607843137,435C-6.2745098039215685,436.6666666666667,0,438.3333333333333,0,440C0,441.6666666666667,-12.549019607843137,443.3333333333333,-12.549019607843137,445C-12.549019607843137,446.6666666666667,0,448.3333333333333,0,450C0,451.6666666666667,0,453.3333333333333,0,455C0,456.6666666666667,0,458.3333333333333,0,460C0,461.6666666666667,-12.549019607843137,463.3333333333333,-12.549019607843137,465C-12.549019607843137,466.6666666666667,-12.549019607843137,468.3333333333333,-12.549019607843137,470C-12.549019607843137,471.6666666666667,0,473.3333333333333,0,475C0,476.6666666666667,-25.098039215686274,478.3333333333333,-25.098039215686274,480C-25.098039215686274,481.6666666666667,-12.549019607843137,483.3333333333333,-12.549019607843137,485C-12.549019607843137,486.6666666666667,-12.549019607843137,488.3333333333333,-12.549019607843137,490C-12.549019607843137,491.6666666666667,0,493.3333333333333,0,495C0,496.6666666666667,-12.549019607843137,498.3333333333333,-25.098039215686274,500Z" 
          style="fill: #1f77b4;" transform="scale( 2 -2 )"/>
  </g>
  
  <g class="boxgroup" transform="translate( 190 270)">
    <line x1="0" x2="0" y1="75" y2="0"/>
    <path d="M12.549019607843137,75C6.2745098039215685,73.33333333333333,0,71.66666666666667,0,70C0,68.33333333333333,12.549019607843137,66.66666666666667,12.549019607843137,65C12.549019607843137,63.333333333333336,0,61.666666666666664,0,60C0,58.333333333333336,0,56.666666666666664,0,55C0,53.333333333333336,25.098039215686274,51.666666666666664,25.098039215686274,50C25.098039215686274,48.333333333333336,0,46.666666666666664,0,45C0,43.333333333333336,8.366013071895424,41.666666666666664,12.549019607843137,40C16.73202614379085,38.333333333333336,25.098039215686274,36.666666666666664,25.098039215686274,35C25.098039215686274,33.333333333333336,0,31.666666666666668,0,30C0,28.333333333333332,0,26.666666666666668,0,25C0,23.333333333333332,0,21.666666666666668,0,20C0,18.333333333333332,12.549019607843137,16.666666666666668,12.549019607843137,15C12.549019607843137,13.333333333333334,0,11.666666666666666,0,10C0,8.333333333333334,0,6.666666666666667,0,5C0,3.333333333333333,12.549019607843137,1.6666666666666667,25.098039215686274,0L-25.098039215686274,0C-12.549019607843137,1.6666666666666667,0,3.333333333333333,0,5C0,6.666666666666667,0,8.333333333333334,0,10C0,11.666666666666666,-12.549019607843137,13.333333333333334,-12.549019607843137,15C-12.549019607843137,16.666666666666668,0,18.333333333333332,0,20C0,21.666666666666668,0,23.333333333333332,0,25C0,26.666666666666668,0,28.333333333333332,0,30C0,31.666666666666668,-25.098039215686274,33.333333333333336,-25.098039215686274,35C-25.098039215686274,36.666666666666664,-16.73202614379085,38.333333333333336,-12.549019607843137,40C-8.366013071895424,41.666666666666664,0,43.333333333333336,0,45C0,46.666666666666664,-25.098039215686274,48.333333333333336,-25.098039215686274,50C-25.098039215686274,51.666666666666664,0,53.333333333333336,0,55C0,56.666666666666664,0,58.333333333333336,0,60C0,61.666666666666664,-12.549019607843137,63.333333333333336,-12.549019607843137,65C-12.549019607843137,66.66666666666667,0,68.33333333333333,0,70C0,71.66666666666667,-6.2745098039215685,73.33333333333333,-12.549019607843137,75Z" 
          style="fill: #d62728;" transform="scale( 2 -2 )"/>
  </g>

  <g class="boxgroup" transform="translate(300 470)">
    <line x1="0" x2="0" y1="210" y2="125"/>
    <path d="M12.549019607843137,210C6.2745098039215685,208.33333333333334,0,206.66666666666666,0,205C0,203.33333333333334,12.549019607843137,201.66666666666666,12.549019607843137,200C12.549019607843137,198.33333333333334,0,196.66666666666666,0,195C0,193.33333333333334,0,191.66666666666666,0,190C0,188.33333333333334,12.549019607843137,186.66666666666666,12.549019607843137,185C12.549019607843137,183.33333333333334,12.549019607843137,181.66666666666666,12.549019607843137,180C12.549019607843137,178.33333333333334,0,176.66666666666666,0,175C0,173.33333333333334,12.549019607843137,171.66666666666666,12.549019607843137,170C12.549019607843137,168.33333333333334,0,166.66666666666666,0,165C0,163.33333333333334,12.549019607843137,161.66666666666666,12.549019607843137,160C12.549019607843137,158.33333333333334,0,156.66666666666666,0,155C0,153.33333333333334,0,151.66666666666666,0,150C0,148.33333333333334,0,146.66666666666666,0,145C0,143.33333333333334,0,141.66666666666666,0,140C0,138.33333333333334,25.098039215686274,136.66666666666666,25.098039215686274,135C25.098039215686274,133.33333333333334,0,131.66666666666666,0,130C0,128.33333333333334,12.549019607843137,126.66666666666667,25.098039215686274,125L-25.098039215686274,125C-12.549019607843137,126.66666666666667,0,128.33333333333334,0,130C0,131.66666666666666,-25.098039215686274,133.33333333333334,-25.098039215686274,135C-25.098039215686274,136.66666666666666,0,138.33333333333334,0,140C0,141.66666666666666,0,143.33333333333334,0,145C0,146.66666666666666,0,148.33333333333334,0,150C0,151.66666666666666,0,153.33333333333334,0,155C0,156.66666666666666,-12.549019607843137,158.33333333333334,-12.549019607843137,160C-12.549019607843137,161.66666666666666,0,163.33333333333334,0,165C0,166.66666666666666,-12.549019607843137,168.33333333333334,-12.549019607843137,170C-12.549019607843137,171.66666666666666,0,173.33333333333334,0,175C0,176.66666666666666,-12.549019607843137,178.33333333333334,-12.549019607843137,180C-12.549019607843137,181.66666666666666,-12.549019607843137,183.33333333333334,-12.549019607843137,185C-12.549019607843137,186.66666666666666,0,188.33333333333334,0,190C0,191.66666666666666,0,193.33333333333334,0,195C0,196.66666666666666,-12.549019607843137,198.33333333333334,-12.549019607843137,200C-12.549019607843137,201.66666666666666,0,203.33333333333334,0,205C0,206.66666666666666,-6.2745098039215685,208.33333333333334,-12.549019607843137,210Z" 
          style="fill: #2ca02c;" transform="scale( 2 -2 )"/>
  </g>
</svg>