<?xml version="1.0" encoding="UTF-8"?>
<?xml-stylesheet type="text/css" href="../_common.css"?>
<?xml-stylesheet type="text/css" href="../_onto.css"?>
<svg xmlns="http://www.w3.org/2000/svg"
     xmlns:xlink="http://www.w3.org/1999/xlink"
     viewBox="0 110 520 710">

  <defs>
    <style>
      :not(.noStyle) rect {
        fill: white;
      }
    </style>
    <marker id="arrowHeadEnd"
        viewBox="0 0 10 10" refX="10" refY="5"
        markerUnits="strokeWidth"
        markerWidth="7" markerHeight="7"
        orient="auto">
      <path d="M 0,0 l 10,5 l -10,5 z" style="fill: black;"/>
    </marker>
    <marker id="arrowHeadEnd_derive"
        viewBox="-1 0 16 20" refX="16" refY="10"
        markerUnits="strokeWidth"
        markerWidth="17" markerHeight="20"
        orient="auto">
      <path d="M 0,0 l 15,10 l -15,10 Z" style="fill: white; stroke: black;"/>
    </marker>
  </defs>

  <g transform="translate( 190 120 )">
    <rect x="0" y="0" width="120" height="75" />
    <text x="60" y="15">qb:DataSet</text>
    <text x="60" y="30">dcat:Dataset</text>
    <path d="M0,45 l 120,0" />
    <text x="10" y="55" class="start prop">dcterms:title</text>
    <text x="10" y="65" class="start prop">&#x2026;</text>
    <text x="10" y="75" class="start prop"></text>
    <text x="10" y="85" class="start prop"></text>
    <text x="10" y="95" class="start prop"></text>
  </g>

  <g transform="translate( 10 240 )">
    <rect x="0" y="0" width="120" height="50" />
    <text x="60" y="15">dcterms:Agent</text>
    <path d="M0,30 l 120,0" />
    <text x="10" y="40" class="start prop">rdfs:label</text>
    <text x="10" y="50" class="start prop"></text>
    <text x="10" y="60" class="start prop"></text>
  </g>

  <g transform="translate( 160 240 )">
    <rect x="0" y="0" width="180" height="50" />
    <text x="90" y="15">qb:DataStructureDefinition</text>
    <path d="M0,30 l 180,0" />
    <text x="10" y="40" class="start prop"></text>
    <text x="10" y="50" class="start prop"></text>
  </g>

  <g transform="translate( 370 240 )">
    <rect x="0" y="0" width="120" height="60" />
    <text x="60" y="15">dcat:Distribution</text>
    <path d="M0,30 l 120,0" />
    <text x="10" y="40" class="start prop">dcat:downloadURL</text>
    <text x="10" y="50" class="start prop">dcat:mediaType</text>
  </g>

  <g transform="translate( 160 340 )">
    <rect x="0" y="0" width="180" height="60" />
    <text x="90" y="15">qb:ComponentSpecification</text>
    <path d="M0,30 l 180,0" />
    <text x="10" y="40" class="start prop">qb:order</text>
    <text x="10" y="50" class="start prop">rdfs:label</text>
  </g>

  <g transform="translate( 370 340 )">
    <rect x="0" y="0" width="140" height="50" />
    <text x="70" y="15">yavaa:TimeFormat</text>
    <path d="M0,30 l 140,0" />
    <text x="10" y="40" class="start prop">&#x2026;</text>
    <text x="10" y="50" class="start prop"></text>
  </g>

  <g transform="translate( 160 450 )">
    <rect x="0" y="0" width="180" height="50" />
    <text x="90" y="15">qb:ComponentProperty</text>
    <path d="M0,30 l 180,0" />
    <text x="10" y="40" class="start prop">yavaa:hasUnit</text>
    <text x="10" y="50" class="start prop"></text>
    <text x="10" y="60" class="start prop"></text>
  </g>

  <g transform="translate( 230 600 )">
    <rect x="0" y="0" width="120" height="60" />
    <text x="60" y="15">skos:Concept</text>
    <path d="M0,30 l 120,0" />
    <text x="10" y="40" class="start prop">skos:exactMatch</text>
    <text x="10" y="50" class="start prop">skos:closeMatch</text>
  </g>

  <g transform="translate( 380 600 )">
    <rect x="0" y="0" width="120" height="50" />
    <text x="60" y="15">yavaa:Range</text>
    <path d="M0,30 l 120,0" />
    <text x="10" y="40" class="start prop"></text>
    <text x="10" y="50" class="start prop"></text>
  </g>

  <g transform="translate( 230 740 )">
    <rect x="0" y="0" width="140" height="50" />
    <text x="70" y="15">skos:ConceptScheme</text>
    <path d="M0,30 l 140,0" />
    <text x="10" y="40" class="start prop"></text>
    <text x="10" y="50" class="start prop"></text>
  </g>

  <g transform="translate( 380 740 )">
    <rect x="0" y="0" width="130" height="60" />
    <text x="65" y="15">rdfs:Datatype</text>
    <path d="M0,30 l 130,0" />
    <text x="10" y="40" class="start prop">owl:onDatatype</text>
    <text x="10" y="50" class="start prop">owl:withRestrictions</text>
    <text x="10" y="60" class="start prop"></text>
  </g>

  <g transform="translate( 10 550 )">
    <rect x="0" y="0" width="140" height="50" />
    <text x="70" y="15">qb:DimensionProperty</text>
    <path d="M0,30 l 140,0" />
    <text x="10" y="40" class="start prop"></text>
    <text x="10" y="50" class="start prop"></text>
  </g>

  <g transform="translate( 10 620 )">
    <rect x="0" y="0" width="140" height="50" />
    <text x="70" y="15">qb:MeasureProperty</text>
    <path d="M0,30 l 140,0" />
    <text x="10" y="40" class="start prop"></text>
    <text x="10" y="50" class="start prop"></text>
  </g>

  <g transform="translate( 10 690 )">
    <rect x="0" y="0" width="140" height="50" />
    <text x="70" y="15">qb:AttributeProperty</text>
    <path d="M0,30 l 140,0" />
    <text x="10" y="40" class="start prop">yavaa:hasValue</text>
    <text x="10" y="50" class="start prop"></text>
  </g>

  <g transform="translate( 10 760 )">
    <rect x="0" y="0" width="140" height="50" />
    <text x="70" y="15">qb:CodedProperty</text>
    <path d="M0,30 l 140,0" />
    <text x="10" y="40" class="start prop">qb:codelist</text>
    <text x="10" y="50" class="start prop"></text>
  </g>

  <path d="M 190,185 70,185 70,240" class="arrow" />
  <g transform="translate( 70,212.5 )">
    <rect x="-60" y="-10" width="120" height="22" class="background" />
    <text class="relation">dcterms:publisher</text>
  </g>

  <path d="M 310,185 430,185 430,240" class="arrow" />
  <g transform="translate( 430,212.5 )">
    <rect x="-55" y="-10" width="110" height="20" class="background" />
    <text class="relation">dcat:distribution</text>
  </g>

  <path d="M 250,195 250,240" class="arrow" />
  <g transform="translate( 250,217.5 )">
    <rect x="-40" y="-10" width="80" height="20" class="background" />
    <text class="relation">qb:structure</text>
  </g>

  <path d="M 250,290 250,340" class="arrow" />
  <g transform="translate( 250,315 )">
    <rect x="-45" y="-10" width="90" height="20" class="background" />
    <text class="relation">qb:component</text>
  </g>

  <path d="M 250,400 250,450" class="arrow" />
  <g transform="translate( 250,425 )">
    <rect x="-75" y="-10" width="150" height="20" class="background" />
    <text class="relation">qb:componentProperty</text>
  </g>

  <path d="M 290,500 290,600" class="arrow" />
  <g transform="translate( 290,550 )">
    <rect x="-40" y="-10" width="80" height="20" class="background" />
    <text class="relation">qb:concept</text>
  </g>

  <path d="M 340,470 440,470 440,390" class="arrow" />
  <g transform="translate( 440,435 )">
    <rect x="-45" y="-10" width="90" height="20" class="background" />
    <text class="relation">yavaa:hasFormat</text>
  </g>

  <path d="M 340,500 440,500 440,600" class="arrow" />
  <g transform="translate( 440,550 )">
    <rect x="-40" y="-10" width="80" height="20" class="background" />
    <text class="relation">rdfs:range</text>
  </g>

  <path d="M 260,740 260,660" class="arrow" />
  <g transform="translate( 260,700 )">
    <rect x="-65" y="-10" width="130" height="20" class="background" />
    <text class="relation">skos:hasTopConcept</text>
  </g>

  <path d="M 115,425 175,425" class="arrow_derive" />
  <path d="M 115,410 115,440" />
  <g transform="translate( 70 425 )">
    <text x="0" y="-15" class="relation">qb:dimension</text>
    <text x="0" y="0"   class="relation">qb:attribute</text>
    <text x="0" y="15"  class="relation">qb:measure</text>
  </g>

  <path d="M 440,740 440,650" class="arrow_derive" />
  <path d="M 340,740 340,700 440,700" />

  <path d="M 150,785 190,785 190,500" class="arrow_derive" />
  <path d="M 150,715 190,715" />
  <path d="M 150,645 190,645" />
  <path d="M 150,575 190,575" />
</svg>