<?xml version="1.0" encoding="UTF-8" standalone="no"?>
<svg
   xmlns="http://www.w3.org/2000/svg"
   xmlns:xlink="http://www.w3.org/1999/xlink"
   version="1.1"
   viewBox="0 0 26 26">
  <defs>
    <path
       id="el"
       d="M 3,2 20,2 Q 21,2 21,3 L 21,6 Q 21,7 20,7 L 3,7 Q 2,7 2,6 L 2,3 Q 2,2 3,2"
       />
    <g id="ds">
      <use x="0" y="0" xlink:href="#el" />
      <use x="0" y="0" xlink:href="#el"
         transform="translate( 0 6 )" />
      <use x="0" y="0" xlink:href="#el"
         transform="translate( 0 12 )" />
      <use x="0" y="0" xlink:href="#el"
         transform="translate( 0 18 )" />
    </g>
  </defs>

  <!-- <rect x="0" y="0" width="26" height="26" fill="yellow" /> -->

  <use x="0" y="0" xlink:href="#ds"  transform="translate( 0  1 ) scale( 0.35 )"/>
  <use x="0" y="0" xlink:href="#ds"  transform="translate( 0 15.5 ) scale( 0.35 )"/>

  <use x="0" y="0" xlink:href="#ds"  transform="translate( 15 6.2 ) scale( 0.5 )"/>

  <path d="M 9,2 15,13 9,24 11,13 Z" />
</svg>