<?xml version="1.0" encoding="UTF-8" standalone="no"?>
<svg
   xmlns="http://www.w3.org/2000/svg"
   version="1.1"
   viewBox="0 0 26 26">
  <path
     d="M 3,2 20,2 Q 21,2 21,3 L 21,6 Q 21,7 20,7 L 3,7 Q 2,7 2,6 L 2,3 Q 2,2 3,2"
     />
  <path
     d="M 3 7.5 C 2.3333333 7.5 2 7.8333333 2 8.5 L 2 11.5 C 2 12.166667 2.3333333 12.5 3 12.5 L 14.720703 12.5 C 14.913038 10.998701 16.352109 9.8339844 18.130859 9.8339844 L 19.279297 9.8339844 C 19.909687 9.8339844 20.492583 9.9911727 21 10.246094 L 21 8.5 C 21 7.8333333 20.666667 7.5 20 7.5 L 3 7.5 z "
     />
  <path
     d="M 3 13 C 2.3333333 13 2 13.333333 2 14 L 2 17 C 2 17.666667 2.3333333 18 3 18 L 9.5488281 18 C 9.655691 16.202712 10.935782 14.789063 12.527344 14.789062 L 14.681641 14.789062 L 14.681641 13 L 3 13 z "
     />
  <path
     d="M 3 18.5 C 2.3333333 18.5 2 18.833333 2 19.5 L 2 22.5 C 2 23.166667 2.3333333 23.5 3 23.5 L 14.681641 23.5 L 14.681641 22.833984 L 12.527344 22.833984 C 10.865344 22.833984 9.5273437 21.297214 9.5273438 19.386719 L 9.5273438 18.5 L 3 18.5 z "
     />
  <path
     d="M24.813,16.813h-4v-4c0-0.551-0.449-1-1-1h-2c-0.551,0-1,0.449-1,1v4h-4c-0.551,0-1,0.449-1,1v2     c0,0.551,0.449,1,1,1h4v4c0,0.551,0.449,1,1,1h2c0.551,0,1-0.449,1-1v-4h4c0.551,0,1-0.449,1-1v-2     C25.813,17.262,25.364,16.813,24.813,16.813z"
     />
</svg>
